Coordinates
nRows=12
nColumns=24

# SIMM Motion File Header:
name Coordinates
datacolumns 24
datarows 12
otherdata 1
range 0.75000000000000000000 0.76100000000000001000

Units are S.I. units (second, meters, Newtons, ...)
Angles are in degrees.

endheader
time	pelvis_tx	pelvis_ty	pelvis_tz	pelvis_tilt	pelvis_list	pelvis_rotation	hip_flexion_r	hip_adduction_r	hip_rotation_r	knee_angle_r	ankle_angle_r	subtalar_angle_r	mtp_angle_r	hip_flexion_l	hip_adduction_l	hip_rotation_l	knee_angle_l	ankle_angle_l	subtalar_angle_l	mtp_angle_l	lumbar_extension	lumbar_bending	lumbar_rotation
      0.75000000000000000000	      0.60214035345235417000	      1.01044789978061500000	      0.00781100778196030730	      4.46195513597461970000	      0.97701156536528277000	      3.52250063757012200000	     20.36954668107871700000	     -2.93388237974255170000	     -6.88812075822774790000	    -22.65156933436805200000	     -0.57953436867378283000	     -0.00028737713439795453	     -0.00000086128775157333	    -15.58187097527111800000	      0.16167935895194455000	      2.65924835723207310000	    -33.13610303508910700000	      6.31996578752779390000	      0.00067696634472887780	      0.00000009320998782119	    -15.49521684135904200000	      1.81976454780520980000	     -7.26489468451620280000
      0.75100000000000000000	      0.60225866593030630000	      1.01055822154037940000	      0.00798294057258623450	      4.46535302649857440000	      0.95815066915525438000	      3.52455410459111200000	     20.32299893456768600000	     -2.90658398409131810000	     -6.88683162473417370000	    -22.71970623386754800000	     -0.52605767193173103000	     -0.00012835417095336183	      0.00083682761365609355	    -15.43285244532194300000	      0.13168507692684789000	      2.64756664301242230000	    -33.49341048834929800000	      6.12597278910606490000	      0.00060452492917899682	     -0.00185519748087601460	    -15.48686465099404700000	      1.85784559101913490000	     -7.25218213034187810000
      0.75200000000000000000	      0.60237485248093181000	      1.01066956084193000000	      0.00815564520938106760	      4.46865714511566560000	      0.93902857825658637000	      3.52645799347010150000	     20.27559102013068000000	     -2.87882756734764110000	     -6.88550418715675060000	    -22.78584784915184600000	     -0.47191541260728975000	      0.00010587965358743466	      0.00209470509326478570	    -15.28222582982348900000	      0.10110145667283864000	      2.63470146597297330000	    -33.85179987325533100000	      5.93166380647010170000	      0.00049014459014815569	     -0.00464501430158996770	    -15.47854209287042300000	      1.89596172646997440000	     -7.23908323837479360000
      0.75300000000000000000	      0.60248889273729034000	      1.01078191711211550000	      0.00832913655751822520	      4.47186704658314230000	      0.91964048156474354000	      3.52821157977244090000	     20.22734392989403000000	     -2.85059915755981440000	     -6.88414770983183290000	    -22.85005315346340300000	     -0.41686874521774470000	      0.00033253189553170191	      0.00334152931368362350	    -15.13001152180403300000	      0.06991308052381366200	      2.62065146057198990000	    -34.21118063209628700000	      5.73654184825919340000	      0.00037440773565819039	     -0.00740723726222653960	    -15.47024942329618300000	      1.93411374873652540000	     -7.22559361651606210000
      0.75400000000000000000	      0.60260076830608256000	      1.01089528894021720000	      0.00850341868608397310	      4.47498405856240390000	      0.89998588976390037000	      3.52981928551866190000	     20.17826489289542000000	     -2.82189533248694250000	     -6.88277490296132300000	    -22.91233588243242600000	     -0.36094525307445391000	      0.00055027669885320972	      0.00457394726954702630	    -14.97623523364671000000	      0.03810642927927342800	      2.60541690063552520000	    -34.57148580133157600000	      5.54066099308545290000	      0.00025806407141988326	     -0.01010280500250414600	    -15.46198827688017600000	      1.97229849826919850000	     -7.21171450421276550000
      0.75500000000000000000	      0.60271046342046908000	      1.01100967345010000000	      0.00867849543844857390	      4.47800962756290310000	      0.88006475587701782000	      3.53128587754124950000	     20.12836056823443100000	     -2.79271345508768930000	     -6.88139826942428550000	    -22.97270881663408900000	     -0.30417468100203277000	      0.00075932641873779970	      0.00579128573925424910	    -14.82092327686177800000	      0.00566862453161865940	      2.58899894075792410000	    -34.93264970773588400000	      5.34409808976851060000	      0.00014104048890625586	     -0.01272871858644894300	    -15.45376030534181500000	      2.01051245078394510000	     -7.19744764930075930000
      0.75600000000000001000	      0.60281796496181261000	      1.01112506633485140000	      0.00885437069729482980	      4.48094529603568770000	      0.85987740650103872000	      3.53261636314305870000	     20.07763720538962500000	     -2.76305153347451690000	     -6.88003009987621450000	    -23.03118434086533000000	     -0.24658701518490639000	      0.00096051269944492197	      0.00699262675910673930	    -14.66410256808120000000	     -0.02741258587335505100	      2.57139954863309720000	    -35.29460727190357300000	      5.14694567249714830000	      0.00002252364051079035	     -0.01530767094402440800	    -15.44556718889447400000	      2.04875178018791320000	     -7.18279519623338820000
      0.75700000000000001000	      0.60292326134639029000	      1.01124146239360370000	      0.00903104831791046520	      4.48379268654856580000	      0.83942439363399779000	      3.53381570629027710000	     20.02610106275392400000	     -2.73290791862013150000	     -6.87868251720542730000	    -23.08777512865947700000	     -0.18821298135350961000	      0.00115461245859858480	      0.00817776311582700710	    -14.50580063268900900000	     -0.06114884252445966500	      2.55262124070811280000	    -35.65729287168690600000	      4.94929701794171710000	     -0.00009909542217828685	     -0.01786262925285738900	    -15.43741063352502300000	      2.08701247353827140000	     -7.16775936611135740000
      0.75800000000000001000	      0.60302634164976765000	      1.01135885590883980000	      0.00920853205033096530	      4.48655353244034140000	      0.81870645443099421000	      3.53488862160839010000	     19.97375863556047500000	     -2.70228115779204980000	     -6.87736740082117940000	    -23.14249449768395600000	     -0.12908357225199366000	      0.00134181976204352940	      0.00934636686854746320	    -14.34604560586471500000	     -0.09555110539644311200	      2.53266701374506910000	    -36.02063936762836200000	      4.75123068464239480000	     -0.00022397361541313628	     -0.02039014302034998500	    -15.42929241120097400000	      2.12529033526307650000	     -7.15234223730681420000
      0.75900000000000001000	      0.60312719577125873000	      1.01147724057941100000	      0.00938682566571622660	      4.48922969176348820000	      0.79772453817735034000	      3.53583955709463460000	     19.92061660377142800000	     -2.67117002389191960000	     -6.87609632746280490000	    -23.19535638540909200000	     -0.06922966385147316700	      0.00152173939095728440	      0.01049736742974025400	    -14.18486625753855700000	     -0.13062960685691061000	      2.51154036696660880000	    -36.38457803037936600000	      4.55280885085092190000	     -0.00035027435551035122	     -0.02285762539983993800	    -15.42121439540453500000	      2.16358095797563800000	     -7.13654573740961330000
      0.76000000000000001000	      0.60322581579620460000	      1.01159660870566160000	      0.00956593278602220140	      4.49182310540945910000	      0.77647997092107468000	      3.53667316816207130000	     19.86668121142101400000	     -2.63957393750821100000	     -6.87488060430308150000	    -23.24637432095041200000	     -0.00868247263522410090	      0.00169455865101065060	      0.01162986115649649600	    -14.02229194172290700000	     -0.16639389170416241000	      2.48924555873420020000	    -36.74904088944018100000	      4.35411059454171220000	     -0.00047753764647689545	     -0.02526085011457647800	    -15.41317849624622300000	      2.20187964550136070000	     -7.12037215902739810000
      0.76100000000000001000	      0.60332219600521875000	      1.01171695123976370000	      0.00974585695682443980	      4.49433577675965080000	      0.75497442195343378000	      3.53739428303441450000	     19.81195831550330100000	     -2.60749291703348930000	     -6.87373128720823700000	    -23.29556151466848100000	      0.05252610267269286500	      0.00186104693435686760	      0.01274376230290714300	    -13.85835258566562100000	     -0.20285282423268763000	      2.46578758141007000000	    -37.11396070663266800000	      4.15523080404480010000	     -0.00060704629006236050	     -0.02762210507728661600	    -15.40518665862230700000	      2.24018145320926230000	     -7.10382412111838590000
